<svg width="392" height="245" viewBox="0 0 392 245" fill="none" xmlns="http://www.w3.org/2000/svg">
<g clip-path="url(#clip0_235_100)">
<path d="M392 10.2557V234.744C392 240.404 387.404 245 381.744 245H10.2558C4.59563 245 0 240.404 0 234.744V10.2557C0 4.59551 4.59563 -0.00012207 10.2558 -0.00012207H381.744C387.404 -0.00012207 392 4.59551 392 10.2557Z" fill="black"/>
<g opacity="0.892345">
<g opacity="0.55">
<path opacity="0.55" d="M-284.342 1907.67C-270.856 1917.89 -165.491 1995.27 -28.8622 1979.97C90.0333 1966.66 208.089 1885.9 256.677 1778.53C299.668 1683.53 263.262 1622.93 317.579 1577.28C382.81 1522.44 465.456 1584.53 517.154 1534.19C579.877 1473.11 488.042 1352.65 554.579 1263.13C605.351 1194.82 680.275 1236.14 733.876 1170.68C805.233 1083.55 698.397 978.708 752.728 825.443C797.032 700.449 887.324 715.888 928.221 590.989C962.813 485.338 934.138 348.805 860.098 256.787C757.493 129.274 597.784 207.682 522.415 114.882C439.105 12.3062 642.096 -148.435 592.146 -334.19C564.96 -435.309 482.613 -531.49 381.827 -557.404C200.264 -604.09 24.5058 -406.768 2.10429 -381.626C-125.194 -238.705 -88.6189 -136.804 -213.539 -35.6984C-260.093 1.97939 -323.424 34.9727 -492.6 60.2633C-859.363 115.087 -968.648 20.8429 -1154.2 60.1053C-1421.06 116.571 -1725.34 423.745 -1706.69 795.815C-1689.35 1141.88 -1398.17 1433.73 -1131.89 1456.22C-852.841 1479.8 -691.548 1199.93 -541.919 1281.07C-378.805 1369.52 -518.714 1730.15 -284.342 1907.67Z" fill="#57A5DC"/>
</g>
<g opacity="0.55">
<path opacity="0.55" d="M-733.781 309.028C-674.768 404.671 -561.546 409.769 -538.156 410.819C-513.934 411.907 -435.601 412.005 -367.867 360.083C-249.39 269.258 -312.441 133.556 -201.325 22.8361C-115.748 -62.4463 26.8436 -86.7632 61.6773 -45.22C105.521 7.06702 -44.0522 136.642 3.32697 230.092C45.6899 313.649 231.45 340.603 339.908 264.931C436.719 197.383 449.818 63.5058 458.661 -26.9032C474.697 -190.811 418.839 -237.507 462.864 -319.796C509.904 -407.716 634.342 -467.817 736.306 -446.816C890.203 -415.11 895.279 -218.733 1014.54 -206.815C1139.37 -194.34 1317.75 -391.06 1299.56 -586.732C1288.64 -704.289 1207.72 -811.188 1112.27 -861.356C985.173 -928.163 892.817 -862.556 814.235 -937.866C733.261 -1015.46 794.552 -1120.36 723.969 -1174.56C617.239 -1256.53 326.749 -1132.12 311.151 -996.714C303.448 -929.865 368.094 -906.826 360.904 -835.513C348.737 -714.739 144.462 -593.568 31.862 -644.447C-74.1329 -692.34 -27.6506 -864.51 -130.648 -905.347C-246.178 -951.146 -453.096 -822.071 -465.196 -686.961C-477.957 -544.532 -270.886 -452.465 -304.869 -367.32C-340.416 -278.247 -585.598 -333.2 -621.937 -237.644C-650.766 -161.833 -516.13 -75.4867 -550.936 -1.98891C-580.101 59.6126 -686.454 23.8978 -741.215 100.193C-783.022 158.435 -770.954 248.779 -733.781 309.028Z" fill="#EF1E50"/>
</g>
<g opacity="0.55">
<path opacity="0.55" d="M-234.426 -348.944C-247.315 -344.025 -309.749 -320.18 -360.217 -347.97C-422.943 -382.508 -413.392 -467.662 -478.301 -489.653C-499.881 -496.966 -532.703 -498.517 -555.945 -481.665C-609.972 -442.506 -566.581 -337.071 -605.551 -316.104C-644.13 -295.345 -706.748 -393.681 -757.712 -373.726C-794.524 -359.317 -807.566 -290.457 -803.237 -241.009C-795.022 -147.069 -723.105 -111.402 -741.142 -58.7882C-752.056 -26.9438 -789.449 -7.79259 -817.106 -2.09767C-911.095 17.2492 -962.809 -104.445 -1070.29 -115.462C-1152.73 -123.912 -1220.28 -62.3701 -1279.22 -8.67495C-1422.32 121.69 -1596.38 402.343 -1485.36 627.373C-1444.45 710.301 -1348.25 819.252 -1242.29 818.084C-1161.43 817.191 -1134.2 752.83 -977.587 721.703C-917.184 709.699 -876.922 702.225 -830.06 718.996C-774.675 738.812 -768.549 771.568 -679.565 842.605C-607.377 900.231 -571.283 929.048 -533.571 922.724C-465.929 911.385 -460.176 810.824 -392.586 803.145C-354.073 798.77 -346.281 830.332 -284.378 852.87C-274.393 856.503 -138.233 903.777 -48.5635 823.897C-10.9656 790.4 22.6651 730.814 14.2902 671.799C4.41383 602.179 -57.2296 580.464 -46.9138 532.299C-38.3737 492.418 6.09111 497.062 36.4356 449.947C79.7152 382.762 18.7806 327.529 44.5596 245.091C77.2441 140.563 196.562 161.063 222.767 64.8694C244.086 -13.394 171.712 -51.1902 186.456 -181.649C191.472 -226.032 199.784 -221.092 213.82 -289.617C236.043 -398.083 251.879 -475.361 214.539 -535.184C171.797 -603.659 60.9716 -646.7 -17.5892 -615.352C-131.066 -570.064 -104.035 -398.741 -234.426 -348.944Z" fill="#FC278F"/>
</g>
<g opacity="0.55">
<path opacity="0.55" d="M883.352 -118.582C838.283 -122.558 806.565 -148.964 789.262 -163.357C715.175 -225.022 729.622 -295.041 680.119 -385.875C639.844 -459.775 545.538 -568.931 446.945 -558.862C360.99 -550.089 284.999 -452.039 268.147 -357.168C238.747 -191.653 397.382 -80.9882 346.164 1.31061C307.335 63.6946 208.533 12.3924 129.064 91.7001C50.4658 170.134 90.7981 276.502 32.9266 300.331C-37.1631 329.181 -112.957 179.995 -225.031 201.466C-283.626 212.694 -327.519 265.845 -345.649 309.557C-381.335 395.604 -313.812 436.94 -336.233 520.892C-370.77 650.269 -559.588 658.738 -563.013 763.256C-564.328 803.214 -538.02 841.34 -510.237 860.791C-427.727 918.557 -334.516 809.982 -234.848 852.724C-131.178 897.191 -155.504 1047.47 -49.7025 1079.11C0.802016 1094.21 60.5045 1076.16 97.7937 1044.47C192.479 964.058 126.705 809.377 193.115 775.327C249.459 746.442 306.509 852.792 452.091 863.647C472.312 865.155 599.164 874.615 666.522 798.284C734.791 720.925 679.813 625.86 742.858 579.143C807.266 531.41 896.389 607.111 950.409 554.076C983.074 522.006 987.255 458.217 970.177 415.843C955.454 379.308 932.96 378.653 921.043 342.056C908.808 304.479 914.666 250.394 943.367 222.518C995.068 172.306 1078.65 248.18 1173.78 216.237C1277.02 181.563 1371.4 27.4227 1321.26 -86.9491C1282.61 -175.116 1164.81 -224.269 1078.15 -205.578C994.158 -187.479 965.641 -111.315 883.352 -118.582Z" fill="#FC278F"/>
</g>
<g opacity="0.55">
<path opacity="0.55" d="M553.876 -1185.51C727.31 -1064.06 819.085 -824.725 755.961 -656.512C694.624 -493.049 517.292 -470.226 518.514 -339.81C519.214 -264.944 582.767 -190.399 650.907 -164.394C760.13 -122.712 824.906 -227.094 987.676 -230.662C1095.51 -233.025 1263.91 -195.078 1319.42 -86.7607C1392.46 55.7362 1208.76 199.195 1283.9 351.324C1342.96 470.888 1487.94 446.062 1512.87 545.502C1540.2 654.546 1403.15 833.191 1231.91 849.048C1099.07 861.35 968.874 773.538 920.55 667.325C857.862 529.549 959.833 419.994 882.098 323.268C835.631 265.447 744.947 237.086 673.422 255.114C549.843 286.269 552.097 438.615 446.283 460.486C355.607 479.229 230.834 392.816 192.191 286.344C132.711 122.474 302.918 -18.1738 232.558 -117.131C185.128 -183.848 97.0466 -134.983 -13.2113 -226.531C-31.6766 -241.861 -120.371 -315.506 -125.152 -417.641C-130.259 -526.775 -33.8428 -546.183 -10.7655 -667.226C18.1417 -818.884 -116.864 -874.334 -90.3558 -1015.55C-66.71 -1141.53 64.9108 -1226.28 161.204 -1257.92C358.12 -1322.6 526.884 -1204.42 553.876 -1185.51Z" fill="#FC278F"/>
</g>
<g opacity="0.55">
<path opacity="0.55" d="M98.952 280.106C160.295 268.526 179.773 358.261 277.541 372.375C383.472 387.66 424.54 291.55 509.951 319.555C573.894 340.516 580.097 403.969 662.301 421.244C701.051 429.379 732.943 422.271 745.334 419.373C859.52 392.657 863.953 281.727 953.552 253.138C1054.31 220.986 1119.63 338.623 1200.87 302.068C1271.74 270.177 1311.46 140.407 1271.23 68.3555C1232.92 -0.249653 1139.29 14.2426 1090.12 -81.2169C1084.23 -92.6436 1071.61 -118.065 1069.34 -152.813C1063.47 -242.896 1134.99 -280.36 1119.08 -342.383C1109.46 -379.916 1072.45 -408.393 1039.83 -417.556C976.263 -435.398 945.5 -375.375 865.222 -371.861C776.158 -367.96 760.728 -439.512 689.62 -438.292C564.206 -436.136 533.789 -212.219 414.778 -206.364C321.098 -201.755 297.412 -351.528 183.408 -354.538C90.8096 -356.983 73.6761 -260.478 -46.7252 -253.739C-133.793 -248.864 -178.198 -296.337 -231.305 -263.665C-262.918 -244.216 -287.746 -202.429 -283.072 -164.051C-273.85 -88.2867 -156.662 -82.9467 -146.81 -23.833C-132.291 63.2615 -377.808 105.123 -410.046 257.942C-431.433 359.313 -355.362 492.366 -250.359 523.187C-160.328 549.608 -74.4724 493.487 -64.6401 486.702C43.8706 411.765 29.0661 293.303 98.952 280.106Z" fill="#FC278F"/>
</g>
</g>
<path d="M37.4421 211.953H35.6792C34.9567 211.953 34.3311 211.694 33.8195 211.182C33.3067 210.67 33.0469 210.051 33.0469 209.342V206.607C33.0469 206.368 33.1323 206.163 33.301 205.996C33.4696 205.828 33.677 205.743 33.9175 205.743C34.1579 205.743 34.3653 205.828 34.534 205.996C34.7026 206.162 34.7881 206.367 34.7881 206.607V209.362C34.7881 209.595 34.8758 209.795 35.0479 209.958C35.2188 210.122 35.4308 210.205 35.6792 210.205H37.4421C37.6825 210.205 37.8933 210.121 38.0688 209.953C38.2443 209.787 38.3332 209.581 38.3332 209.342V199.153C38.3332 198.914 38.4164 198.707 38.5816 198.541C38.7468 198.374 38.9508 198.289 39.1844 198.289C39.418 198.289 39.6277 198.383 39.8055 198.567C39.9844 198.748 40.0755 198.959 40.0755 199.194V209.342C40.0755 210.064 39.8066 210.687 39.2767 211.192C38.7468 211.697 38.1303 211.953 37.4421 211.953ZM49.3935 200.017C49.1474 200.017 48.9525 200.151 48.8135 200.418L47.0096 204.058C46.8444 204.43 46.7612 204.789 46.7612 205.126C46.7612 205.5 46.8444 205.864 47.0096 206.206L48.8659 209.886C48.9616 210.112 49.1382 210.226 49.3935 210.226C49.6146 210.226 49.7855 210.112 49.9017 209.886L51.7683 206.206C51.9404 205.844 52.027 205.482 52.027 205.126C52.027 204.75 51.9404 204.391 51.7683 204.058L49.9428 200.418C49.8254 200.151 49.6408 200.017 49.3935 200.017ZM49.3935 211.953C48.932 211.953 48.5126 211.833 48.1457 211.593C47.7788 211.356 47.4973 211.052 47.3104 210.688L45.3823 206.854C45.1282 206.355 44.9995 205.78 44.9995 205.147C44.9995 204.512 45.1282 203.936 45.3823 203.431L47.3104 199.554C47.7435 198.715 48.4443 198.289 49.3935 198.289C50.3575 198.289 51.0549 198.715 51.4675 199.554L53.3853 203.431C53.6531 203.967 53.7887 204.545 53.7887 205.147C53.7887 205.735 53.6531 206.309 53.3853 206.854L51.4675 210.688C51.0618 211.527 50.3632 211.953 49.3935 211.953ZM87.8619 200.017C87.6158 200.017 87.4209 200.151 87.2819 200.418L85.4792 204.058C85.3139 204.427 85.2296 204.786 85.2296 205.126C85.2296 205.498 85.3139 205.861 85.4792 206.206L87.3343 209.886C87.43 210.112 87.6067 210.226 87.8619 210.226C88.083 210.226 88.2551 210.112 88.3713 209.886L90.2367 206.206C90.4088 205.843 90.4954 205.48 90.4954 205.126C90.4954 204.753 90.4088 204.394 90.2367 204.058L88.4123 200.418C88.2949 200.151 88.1092 200.017 87.8619 200.017ZM87.8619 211.953C87.4016 211.953 86.9811 211.833 86.613 211.593C86.2461 211.36 85.9657 211.054 85.7789 210.688L83.8508 206.854C83.5966 206.357 83.4679 205.783 83.4679 205.147C83.4679 204.511 83.5966 203.933 83.8508 203.431L85.7789 199.554C86.2119 198.715 86.9127 198.289 87.8619 198.289C88.826 198.289 89.5234 198.715 89.9359 199.554L91.8537 203.431C92.1215 203.964 92.2582 204.541 92.2582 205.147C92.2582 205.739 92.1215 206.314 91.8537 206.854L89.9359 210.688C89.5302 211.527 88.8317 211.953 87.8619 211.953ZM110.895 200.037V202.772H115.312C115.553 202.772 115.76 202.688 115.929 202.52C116.097 202.354 116.183 202.148 116.183 201.908V200.9C116.183 200.662 116.097 200.457 115.929 200.289C115.76 200.122 115.553 200.037 115.312 200.037H110.895ZM117.053 211.953C116.709 211.953 116.445 211.797 116.266 211.491L112.17 204.5H110.916V211.09C110.916 211.328 110.827 211.534 110.653 211.702C110.477 211.868 110.265 211.953 110.025 211.953C109.784 211.953 109.577 211.868 109.408 211.702C109.24 211.534 109.154 211.328 109.154 211.09V198.289H115.312C116.02 198.289 116.639 198.549 117.151 199.061C117.664 199.572 117.924 200.19 117.924 200.9V201.888C117.924 202.605 117.666 203.225 117.157 203.733C116.648 204.241 116.027 204.5 115.312 204.5H114.202L117.768 210.565C117.878 210.75 117.934 210.93 117.934 211.1C117.934 211.332 117.843 211.535 117.664 211.702C117.485 211.868 117.28 211.953 117.053 211.953ZM129.856 211.953H122.807C122.566 211.953 122.358 211.868 122.189 211.702C122.021 211.534 121.936 211.329 121.936 211.09C121.936 210.85 122.022 210.645 122.189 210.479C122.358 210.311 122.565 210.226 122.807 210.226H125.48V200.037H122.807C122.565 200.037 122.357 199.951 122.189 199.781C122.021 199.611 121.936 199.406 121.936 199.173C121.936 198.927 122.021 198.717 122.189 198.547C122.358 198.376 122.566 198.289 122.807 198.289H129.856C130.083 198.289 130.286 198.376 130.461 198.547C130.637 198.718 130.727 198.922 130.727 199.153C130.727 199.392 130.639 199.601 130.467 199.775C130.296 199.948 130.09 200.037 129.856 200.037H127.221V210.226H129.856C130.096 210.226 130.303 210.311 130.471 210.479C130.64 210.645 130.727 210.85 130.727 211.09C130.727 211.329 130.639 211.534 130.467 211.702C130.295 211.868 130.09 211.953 129.856 211.953ZM142.678 211.953H134.779V198.289H142.678C142.919 198.289 143.129 198.377 143.305 198.551C143.48 198.724 143.569 198.934 143.569 199.173C143.569 199.406 143.48 199.61 143.305 199.781C143.129 199.951 142.919 200.037 142.678 200.037H136.521V204.243H139.174C139.408 204.243 139.614 204.329 139.786 204.499C139.957 204.669 140.045 204.873 140.045 205.106C140.045 205.352 139.96 205.563 139.792 205.733C139.623 205.904 139.414 205.99 139.174 205.99H136.521V210.226H142.699C142.932 210.226 143.14 210.311 143.311 210.479C143.483 210.645 143.569 210.85 143.569 211.09C143.569 211.329 143.48 211.534 143.305 211.702C143.129 211.868 142.919 211.953 142.678 211.953ZM155.512 211.953C155.278 211.953 155.065 211.874 154.879 211.717L149.323 206.967V211.09C149.323 211.328 149.237 211.534 149.069 211.702C148.9 211.868 148.693 211.953 148.452 211.953C148.219 211.953 148.013 211.868 147.84 211.702C147.669 211.534 147.582 211.329 147.582 211.09V199.173C147.582 198.927 147.666 198.717 147.835 198.547C148.003 198.376 148.212 198.289 148.452 198.289C148.693 198.289 148.9 198.374 149.069 198.541C149.237 198.707 149.323 198.914 149.323 199.153V203.235L154.9 198.516C155.093 198.359 155.312 198.279 155.553 198.279C155.793 198.279 155.999 198.369 156.164 198.547C156.33 198.723 156.413 198.931 156.413 199.163C156.413 199.403 156.318 199.603 156.133 199.76L149.81 205.085L156.133 210.504C156.305 210.646 156.392 210.833 156.392 211.059C156.392 211.283 156.307 211.492 156.138 211.676C155.97 211.86 155.759 211.953 155.512 211.953ZM167.432 211.953H165.794C165.279 211.953 164.943 211.719 164.799 211.255C164.64 211.719 164.319 211.953 163.845 211.953H162.311C161.871 211.953 161.55 211.79 161.357 211.47L160.612 210.226C160.474 210.002 160.405 209.805 160.405 209.64V199.173C160.405 198.934 160.494 198.724 160.668 198.551C160.843 198.377 161.054 198.289 161.296 198.289C161.523 198.289 161.724 198.377 161.892 198.551C162.06 198.726 162.146 198.935 162.146 199.173V209.403L162.654 210.226H163.401L163.949 209.362V203.636C163.949 203.397 164.034 203.19 164.203 203.024C164.371 202.856 164.579 202.772 164.819 202.772C165.061 202.772 165.268 202.856 165.437 203.024C165.604 203.19 165.69 203.397 165.69 203.636V209.383L166.199 210.226H166.924L167.454 209.362V199.173C167.454 198.935 167.543 198.726 167.717 198.551C167.893 198.377 168.103 198.289 168.345 198.289C168.579 198.289 168.784 198.376 168.956 198.547C169.128 198.717 169.216 198.92 169.216 199.153V209.64C169.216 209.771 169.143 209.955 168.998 210.185L168.189 211.511C168.025 211.804 167.771 211.953 167.432 211.953ZM181.147 211.953H173.248V198.289H181.147C181.387 198.289 181.598 198.377 181.773 198.551C181.949 198.724 182.038 198.934 182.038 199.173C182.038 199.406 181.949 199.61 181.773 199.781C181.598 199.951 181.387 200.037 181.147 200.037H174.99V204.243H177.642C177.876 204.243 178.082 204.329 178.254 204.499C178.425 204.669 178.513 204.873 178.513 205.106C178.513 205.352 178.429 205.563 178.26 205.733C178.091 205.904 177.883 205.99 177.642 205.99H174.99V210.226H181.167C181.401 210.226 181.608 210.311 181.779 210.479C181.951 210.645 182.038 210.85 182.038 211.09C182.038 211.329 181.949 211.534 181.773 211.702C181.598 211.868 181.387 211.953 181.147 211.953ZM193.97 211.953H186.07V199.153C186.07 198.922 186.157 198.718 186.329 198.547C186.502 198.376 186.707 198.289 186.941 198.289C187.175 198.289 187.381 198.376 187.553 198.547C187.725 198.718 187.812 198.922 187.812 199.153V210.226H193.97C194.21 210.226 194.421 210.311 194.596 210.479C194.772 210.645 194.861 210.85 194.861 211.09C194.861 211.329 194.772 211.534 194.596 211.702C194.421 211.868 194.209 211.953 193.97 211.953ZM66.6119 211.953H66.6107H64.2701L59.5832 201.342V211.09C59.5832 211.329 59.4989 211.534 59.3302 211.702C59.1605 211.868 58.9531 211.953 58.7126 211.953C58.4722 211.953 58.2648 211.868 58.0961 211.702C57.9275 211.534 57.842 211.328 57.842 211.09V198.289H60.1541L64.8502 208.879V199.173C64.8502 198.935 64.939 198.726 65.1134 198.551C65.2889 198.377 65.4997 198.289 65.7413 198.289C65.9817 198.289 66.1891 198.376 66.3578 198.547C66.5264 198.718 66.6119 198.928 66.6119 199.173V211.952V211.953ZM79.4351 211.953H79.4339H77.0933L72.4064 201.342V211.09C72.4064 211.329 72.3209 211.535 72.1523 211.702C71.9836 211.868 71.7762 211.953 71.5358 211.953C71.2954 211.953 71.088 211.868 70.9193 211.702C70.7507 211.534 70.6652 211.328 70.6652 211.09V198.289H72.9773L77.6733 208.879V199.173C77.6733 198.935 77.7622 198.726 77.9366 198.551C78.1121 198.377 78.3229 198.289 78.5645 198.289C78.8049 198.289 79.0123 198.376 79.1809 198.547C79.3496 198.718 79.4351 198.928 79.4351 199.173V211.952V211.953Z" fill="white"/>
<path d="M317.4 213.078H313.419C313.067 213.078 312.683 212.99 312.282 212.817L310.983 212.261C310.636 212.115 310.461 211.834 310.461 211.424C310.461 211.181 310.541 210.971 310.697 210.8C310.853 210.63 311.044 210.544 311.269 210.544C311.441 210.544 311.641 210.596 311.863 210.7L312.999 211.192C313.132 211.275 313.274 211.319 313.419 211.319H317.4V207.003H312.2V199.177H318.26C318.491 199.177 318.694 199.265 318.863 199.439C319.033 199.612 319.119 199.82 319.119 200.057C319.119 200.299 319.034 200.509 318.867 200.68C318.701 200.85 318.497 200.936 318.26 200.936H313.941V205.243H317.4C317.861 205.243 318.267 205.419 318.607 205.767C318.947 206.116 319.119 206.532 319.119 207.003V211.319C319.119 211.797 318.948 212.216 318.612 212.56C318.275 212.904 317.868 213.078 317.4 213.078ZM343.392 213.078H335.574V207.003C335.574 206.517 335.745 206.093 336.081 205.745C336.416 205.398 336.824 205.222 337.294 205.222H342.513V200.936H336.372C336.127 200.936 335.92 200.85 335.759 200.68C335.596 200.509 335.512 200.299 335.512 200.057C335.512 199.814 335.596 199.604 335.759 199.433C335.922 199.264 336.128 199.177 336.372 199.177H342.513C342.988 199.177 343.4 199.351 343.741 199.695C344.081 200.041 344.253 200.458 344.253 200.936V205.222C344.253 205.716 344.081 206.138 343.741 206.484C343.4 206.828 342.988 207.003 342.513 207.003H337.294V211.319H343.392C343.624 211.319 343.828 211.405 343.996 211.575C344.166 211.746 344.253 211.956 344.253 212.198C344.253 212.441 344.166 212.652 343.996 212.823C343.828 212.993 343.624 213.078 343.392 213.078ZM355.991 213.078H349.051C348.814 213.078 348.609 212.989 348.443 212.813C348.276 212.635 348.192 212.421 348.192 212.178C348.192 211.942 348.276 211.738 348.443 211.571C348.609 211.404 348.814 211.319 349.051 211.319H351.693V200.936H349.092C348.855 200.936 348.65 200.85 348.484 200.68C348.317 200.509 348.233 200.299 348.233 200.057C348.233 199.814 348.317 199.604 348.484 199.433C348.651 199.264 348.855 199.177 349.092 199.177H353.411V211.319H355.131V207.653C355.131 207.416 355.215 207.207 355.381 207.034C355.548 206.861 355.753 206.772 355.991 206.772C356.229 206.772 356.433 206.859 356.6 207.028C356.766 207.198 356.85 207.409 356.85 207.653V212.198C356.85 212.442 356.766 212.653 356.6 212.823C356.433 212.993 356.229 213.078 355.991 213.078ZM324.061 213.11C323.838 213.11 323.626 213.03 323.432 212.874C323.239 212.718 323.141 212.515 323.141 212.271C323.141 212.055 323.21 211.824 323.346 211.581L330.324 199.449C330.439 199.261 330.622 199.167 330.867 199.167C331.084 199.167 331.293 199.243 331.486 199.392C331.68 199.543 331.777 199.741 331.777 199.984C331.777 200.212 331.705 200.451 331.563 200.696L324.583 212.838C324.475 213.019 324.299 213.11 324.061 213.11Z" fill="white"/>
<path d="M284.978 203.905H284.977H284.055L282.681 199.395H283.509L284.129 201.663C284.179 201.848 284.225 202.025 284.278 202.23L284.29 202.273L284.3 202.312L284.303 202.322L284.304 202.328L284.327 202.415L284.328 202.425L284.349 202.501C284.423 202.787 284.472 202.965 284.52 203.132H284.547C284.614 202.902 284.686 202.63 284.794 202.196L284.814 202.118L284.833 202.041L284.866 201.913C284.872 201.888 284.879 201.864 284.885 201.84L284.894 201.805L284.91 201.747L284.931 201.663L285.544 199.395H286.345L284.978 203.904V203.905ZM293.25 203.905H293.249H290.637V199.395H291.419V203.229H293.25V203.904V203.905ZM296.699 200.043V203.256H297.043C297.969 203.256 298.438 202.709 298.438 201.629C298.438 200.576 297.969 200.043 297.043 200.043H296.699ZM297.137 203.905H295.917V199.395H297.097C298.478 199.395 299.239 200.188 299.239 201.629C299.239 203.075 298.473 203.905 297.137 203.905ZM294.8 203.905H294.798H294.018V199.395H294.8V203.904V203.905ZM288.171 200.014C288.042 200.56 287.913 201.048 287.78 201.505L287.625 202.056H288.749L288.595 201.505C288.489 201.144 288.384 200.739 288.315 200.47L288.302 200.421L288.285 200.353L288.277 200.324L288.276 200.316L288.25 200.216L288.228 200.13L288.215 200.081L288.209 200.052C288.207 200.046 288.205 200.04 288.203 200.034C288.201 200.027 288.199 200.02 288.198 200.014H288.171ZM287.1 203.906H287.099L286.306 203.905L287.74 199.395H288.655L290.091 203.904L289.269 203.905L288.925 202.683H287.444L287.1 203.905V203.906ZM284.937 212.334H284.936L284.156 212.333V208.498H282.882V207.823H286.211V208.498H284.937V212.333V212.334ZM287.727 212.334H287.725L286.945 212.333V207.823H287.727V209.637H289.512V207.823H290.294V212.333H289.512V210.333H287.727V212.333V212.334ZM292.193 208.465V209.933H292.819C293.426 209.933 293.749 209.666 293.749 209.161C293.749 208.679 293.462 208.465 292.819 208.465H292.193ZM292.193 212.334H292.191L291.412 212.333V207.823H292.901C293.973 207.823 294.517 208.274 294.517 209.161C294.517 209.803 294.214 210.249 293.641 210.45L294.691 212.332L293.816 212.333L292.867 210.568H292.193V212.333V212.334ZM297.097 212.416C295.988 212.416 295.426 211.722 295.426 210.353V207.823H296.208V210.416C296.208 211.294 296.499 211.72 297.097 211.72C297.713 211.72 298.013 211.294 298.013 210.416V207.823H298.761V210.353C298.761 211.741 298.216 212.416 297.097 212.416Z" fill="white"/>
<path d="M292.291 49.311H292.289H287.163L289.825 43.4402L292.29 49.3088L292.291 49.311ZM332.946 54.5951V54.5916V52.6977H324.768V49.7167H332.946V47.008H324.768V44.5694H332.946V42.2664L339.012 48.4165L332.948 54.5928L332.946 54.5951ZM315.019 44.386H315.021V55.1808H318.5V41.6796H312.836L308.573 50.7252L303.987 41.6796H298.322V54.7763L292.469 41.6796H287.154L280.895 55.1808H284.725L285.994 52.1029H293.278L294.735 55.1808H301.775V44.1911L306.765 55.1808H310.057L315.019 44.386ZM341.542 50.7526L341.543 50.7537L346.028 55.1808H350.218L343.811 48.3481L350.407 41.6796H346.028L341.677 46.0531L337.622 41.6796H321.349V55.1808H337.081L341.54 50.7537L341.542 50.7526ZM287.141 58.1174H287.14L275.768 58.1162L284.744 38.7441H306.181L308.346 43.0231L310.366 38.7441H317.982H321.821H339.268L341.739 41.4038L344.393 38.7441H357.814L348.284 48.4085L357.4 58.114L344.414 58.1162L341.508 55.2628L338.627 58.1162H321.821H317.982H292.262L290.868 55.0611H288.41L287.141 58.1162V58.1174Z" fill="white"/>
<path d="M55.0822 66.4051V63.9973H56.8815C57.8831 63.9973 58.6808 63.6577 59.2756 62.9774C59.8693 62.2971 60.1668 61.3843 60.1668 60.2379V57.952C58.1293 57.952 56.5168 57.4039 55.3283 56.3065C54.1398 55.2092 53.5449 53.7175 53.5449 51.8339V32.5643H56.2958V51.8339C56.2958 52.9814 56.6433 53.8862 57.3396 54.5494C58.0358 55.2126 58.9782 55.5442 60.1668 55.5442V32.5643H62.9176V60.2379C62.9176 62.1375 62.374 63.6417 61.2881 64.7471C60.2009 65.8524 58.7321 66.4051 56.8815 66.4051H55.0822Z" fill="white"/>
<path d="M44.4422 35.035V45.8936L44.4491 45.8913C45.6467 45.8913 46.6085 45.5734 47.3082 44.9466C48.009 44.3199 48.3645 43.4561 48.3645 42.3793V38.6712C48.3645 37.5636 48.009 36.6713 47.3082 36.0184C46.6074 35.3666 45.6422 35.035 44.4422 35.035ZM44.4422 66.428H44.4411L41.6914 66.4269V32.5645H44.4422C46.4866 32.5645 48.1275 33.1148 49.3195 34.1985C50.5114 35.2822 51.1154 36.7671 51.1154 38.6097V42.3177C51.1154 43.2294 50.8544 44.1228 50.3382 44.9717C49.822 45.8207 49.1155 46.5306 48.2369 47.0844C49.0995 47.5733 49.7935 48.2433 50.3006 49.074C50.8077 49.9048 51.0641 50.8073 51.0641 51.7531V66.4257L48.3645 66.4269V51.7531C48.3645 50.6774 48.009 49.8136 47.3082 49.1857C46.6062 48.5578 45.6422 48.2388 44.4422 48.2388V66.4269V66.428Z" fill="white"/>
<path d="M29.2344 32.5656V34.9734H33.1555V66.4268H35.8972V34.9734H39.8685V32.5656H29.2344Z" fill="white"/>
<path d="M41.1829 157.353C40.8549 157.353 40.5741 157.232 40.3439 156.992C40.1148 156.753 39.9986 156.458 39.9986 156.116V150.964H32.8594V139.053C32.8594 138.712 32.9802 138.412 33.2185 138.162C33.4579 137.913 33.7456 137.787 34.0725 137.787C34.3913 137.787 34.6698 137.913 34.9046 138.162C35.1382 138.412 35.2568 138.711 35.2568 139.053V148.46H39.9986V141.218C39.9986 140.875 40.1148 140.575 40.3439 140.327C40.5741 140.077 40.8549 139.95 41.1829 139.95C41.5109 139.95 41.7929 140.077 42.0219 140.327C42.251 140.575 42.3684 140.875 42.3684 141.218V148.46C42.6964 148.46 42.9795 148.582 43.2074 148.822C43.4364 149.061 43.5538 149.355 43.5538 149.697C43.5538 150.04 43.4364 150.334 43.2074 150.574C42.9783 150.813 42.6964 150.934 42.3684 150.934V156.116C42.3684 156.458 42.2498 156.753 42.015 156.992C41.7814 157.232 41.5006 157.353 41.1829 157.353Z" fill="white"/>
<path d="M60.4554 157.353H49.6758V148.814C49.6758 148.131 49.9106 147.536 50.3744 147.047C50.8383 146.558 51.4011 146.311 52.0467 146.311H59.2412V140.289H50.7761C50.4389 140.289 50.1546 140.168 49.9302 139.929C49.7057 139.689 49.5918 139.395 49.5918 139.053C49.5918 138.711 49.7057 138.416 49.9302 138.177C50.1546 137.938 50.4389 137.816 50.7761 137.816H59.2412C59.8961 137.816 60.4669 138.062 60.9354 138.545C61.4038 139.029 61.6409 139.616 61.6409 140.289V146.311C61.6409 147.005 61.4038 147.602 60.9354 148.085C60.4681 148.569 59.8972 148.814 59.2412 148.814H52.0467V154.879H60.4554C60.7731 154.879 61.0539 155 61.2875 155.239C61.5223 155.479 61.6409 155.775 61.6409 156.116C61.6409 156.458 61.5223 156.753 61.2875 156.992C61.0539 157.232 60.7731 157.353 60.4554 157.353Z" fill="white"/>
<path d="M79.0453 157.353H68.2668V148.814C68.2668 148.131 68.5004 147.536 68.9643 147.047C69.4281 146.558 69.9909 146.311 70.6366 146.311H77.831V140.289H69.3659C69.0287 140.289 68.7444 140.168 68.52 139.929C68.2956 139.689 68.1816 139.395 68.1816 139.053C68.1816 138.711 68.2956 138.416 68.52 138.177C68.7444 137.938 69.0287 137.816 69.3659 137.816H77.831C78.4859 137.816 79.0568 138.062 79.5252 138.545C79.9936 139.029 80.2307 139.616 80.2307 140.289V146.311C80.2307 147.005 79.9936 147.602 79.5252 148.085C79.0579 148.569 78.4871 148.814 77.831 148.814H70.6366V154.879H79.0453C79.3629 154.879 79.6438 155 79.8774 155.239C80.1122 155.479 80.2307 155.775 80.2307 156.116C80.2307 156.458 80.1122 156.753 79.8774 156.992C79.6438 157.232 79.3629 157.353 79.0453 157.353Z" fill="white"/>
<path d="M95.3117 157.353H86.9318C86.6037 157.353 86.3218 157.232 86.0927 156.992C85.8637 156.753 85.7463 156.459 85.7463 156.116C85.7463 155.774 85.8637 155.479 86.0927 155.239C86.3218 155 86.6037 154.879 86.9318 154.879H95.2841V150.05C95.2841 149.708 95.1667 149.409 94.9376 149.159C94.7086 148.911 94.4266 148.784 94.0986 148.784H89.3303C89.0034 148.784 88.7203 148.665 88.4901 148.431C88.2611 148.195 88.1448 147.899 88.1448 147.548C88.1448 147.207 88.2611 146.911 88.4901 146.671C88.7203 146.431 89.0023 146.311 89.3303 146.311H94.1262C94.445 146.311 94.7259 146.19 94.9595 145.95C95.1931 145.711 95.3117 145.416 95.3117 145.073V140.289H86.8466C86.5197 140.289 86.2377 140.168 86.0076 139.929C85.7785 139.689 85.6611 139.395 85.6611 139.053C85.6611 138.712 85.7785 138.416 86.0076 138.177C86.2366 137.938 86.5197 137.816 86.8466 137.816H95.3117C95.9666 137.816 96.5317 138.062 96.9909 138.545C97.4501 139.03 97.6826 139.616 97.6826 140.289V144.927C97.6826 146.002 97.3603 146.884 96.7227 147.548C97.3788 148.31 97.7102 149.152 97.7102 150.05V154.879C97.7102 155.553 97.4731 156.141 97.0047 156.624C96.5363 157.107 95.9677 157.353 95.3117 157.353Z" fill="white"/>
<path d="M130.47 157.353H124.981C124.477 157.353 123.951 157.229 123.416 156.985L121.625 156.204C121.147 155.999 120.904 155.603 120.904 155.027C120.904 154.685 121.014 154.39 121.229 154.151C121.444 153.911 121.71 153.789 122.02 153.789C122.254 153.789 122.529 153.864 122.838 154.011L124.403 154.703C124.591 154.821 124.784 154.879 124.981 154.879H130.47V148.814H123.303V137.816H131.654C131.973 137.816 132.252 137.94 132.487 138.185C132.722 138.43 132.841 138.721 132.841 139.053C132.841 139.395 132.723 139.689 132.494 139.929C132.264 140.168 131.982 140.289 131.654 140.289H125.701V146.34H130.47C131.106 146.34 131.667 146.588 132.135 147.076C132.604 147.565 132.841 148.15 132.841 148.814V154.879C132.841 155.553 132.605 156.141 132.141 156.624C131.678 157.107 131.115 157.353 130.47 157.353Z" fill="white"/>
<path d="M147.921 157.353H142.433C141.93 157.353 141.403 157.229 140.867 156.985L139.076 156.204C138.598 155.999 138.355 155.603 138.355 155.027C138.355 154.685 138.465 154.39 138.68 154.151C138.895 153.911 139.161 153.789 139.471 153.789C139.706 153.789 139.981 153.864 140.289 154.011L141.855 154.703C142.043 154.821 142.236 154.879 142.433 154.879H147.921V148.814H140.754V137.816H149.105C149.424 137.816 149.704 137.94 149.938 138.185C150.172 138.429 150.291 138.721 150.291 139.053C150.291 139.395 150.174 139.689 149.945 139.929C149.715 140.168 149.433 140.289 149.105 140.289H143.153V146.34H147.921C148.557 146.34 149.117 146.588 149.585 147.076C150.054 147.565 150.291 148.15 150.291 148.814V154.879C150.291 155.554 150.056 156.141 149.593 156.624C149.13 157.107 148.567 157.353 147.921 157.353Z" fill="white"/>
<path d="M160.238 140.289V146.34H162.692V140.289H160.238ZM157.867 148.814V154.879H165.063V148.814H157.867ZM165.063 157.353H157.867C157.204 157.353 156.631 157.095 156.167 156.587C155.704 156.079 155.469 155.494 155.469 154.85V148.814C155.469 148.141 155.706 147.552 156.174 147.069C156.643 146.586 157.212 146.34 157.867 146.34V139.053C157.867 138.711 157.981 138.416 158.206 138.177C158.43 137.938 158.714 137.816 159.052 137.816H163.877C164.204 137.816 164.487 137.938 164.716 138.177C164.946 138.416 165.063 138.712 165.063 139.053V146.34C165.701 146.34 166.26 146.581 166.727 147.054C167.196 147.528 167.433 148.121 167.433 148.814V154.879C167.433 155.553 167.196 156.141 166.727 156.624C166.259 157.107 165.699 157.353 165.063 157.353Z" fill="white"/>
<path d="M177.688 140.289V146.34H180.143V140.289H177.688ZM175.318 148.814V154.879H182.514V148.814H175.318ZM182.514 157.353H175.318C174.654 157.353 174.082 157.095 173.619 156.587C173.156 156.079 172.92 155.494 172.92 154.85V148.814C172.92 148.141 173.157 147.552 173.625 147.069C174.094 146.586 174.664 146.34 175.318 146.34V139.053C175.318 138.711 175.432 138.416 175.657 138.177C175.881 137.938 176.167 137.816 176.504 137.816H181.329C181.657 137.816 181.94 137.938 182.169 138.177C182.398 138.416 182.514 138.712 182.514 139.053V146.34C183.152 146.34 183.711 146.581 184.178 147.054C184.647 147.528 184.884 148.121 184.884 148.814V154.879C184.884 155.553 184.647 156.141 184.178 156.624C183.71 157.107 183.151 157.353 182.514 157.353Z" fill="white"/>
<path d="M209.737 140.289V144.176H216.933V140.289H209.737ZM218.089 157.323H216.904C216.585 157.323 216.305 157.202 216.072 156.962C215.838 156.723 215.72 156.428 215.72 156.087C215.72 155.745 215.835 155.45 216.064 155.211C216.294 154.971 216.576 154.85 216.904 154.85V146.68H208.553C208.234 146.68 207.954 146.556 207.719 146.311C207.486 146.067 207.367 145.774 207.367 145.443V139.024C207.367 138.691 207.486 138.399 207.719 138.155C207.953 137.911 208.234 137.787 208.553 137.787H218.089C218.408 137.787 218.688 137.911 218.921 138.155C219.156 138.4 219.274 138.693 219.274 139.024V156.087C219.274 156.428 219.157 156.723 218.928 156.962C218.699 157.202 218.417 157.323 218.089 157.323Z" fill="white"/>
<path d="M229.76 140.289V146.34H232.214V140.289H229.76ZM227.39 148.814V154.879H234.584V148.814H227.39ZM234.584 157.353H227.39C226.726 157.353 226.154 157.095 225.69 156.587C225.226 156.08 224.991 155.495 224.991 154.85V148.814C224.991 148.139 225.228 147.552 225.697 147.069C226.166 146.586 226.736 146.34 227.39 146.34V139.053C227.39 138.711 227.504 138.416 227.728 138.177C227.953 137.938 228.237 137.816 228.574 137.816H233.399C233.727 137.816 234.01 137.938 234.239 138.177C234.468 138.416 234.584 138.711 234.584 139.053V146.34C235.222 146.34 235.781 146.581 236.248 147.054C236.717 147.528 236.954 148.121 236.954 148.814V154.879C236.954 155.553 236.717 156.141 236.248 156.624C235.78 157.107 235.221 157.353 234.584 157.353Z" fill="white"/>
<path d="M248.708 157.353C248.382 157.353 248.094 157.229 247.854 156.985C247.616 156.74 247.495 156.448 247.495 156.116V149.874C247.495 149.405 247.638 149.038 247.919 148.784L252.292 144.927V140.32H245.126C244.958 141.023 244.558 141.379 243.94 141.379C243.612 141.379 243.33 141.258 243.101 141.019C242.872 140.779 242.756 140.486 242.756 140.143V139.083C242.756 138.74 242.872 138.446 243.101 138.207C243.33 137.967 243.612 137.845 243.94 137.845H254.69V145.443C254.69 145.843 254.544 146.179 254.254 146.443L249.894 150.33V156.087C249.894 156.427 249.778 156.726 249.549 156.976C249.318 157.226 249.036 157.353 248.708 157.353Z" fill="white"/>
<path d="M270.083 157.353H264.595C264.105 157.353 263.578 157.229 263.029 156.985L261.237 156.204C260.759 155.999 260.518 155.603 260.518 155.027C260.518 154.686 260.626 154.39 260.842 154.151C261.056 153.911 261.322 153.789 261.632 153.789C261.866 153.789 262.143 153.864 262.45 154.011L264.016 154.703C264.205 154.821 264.4 154.879 264.595 154.879H270.083V148.814H262.916V137.816H271.268C271.586 137.816 271.866 137.94 272.101 138.185C272.335 138.43 272.454 138.721 272.454 139.053C272.454 139.396 272.336 139.689 272.107 139.929C271.878 140.168 271.596 140.289 271.268 140.289H265.315V146.34H270.083C270.719 146.34 271.28 146.588 271.748 147.076C272.217 147.565 272.454 148.15 272.454 148.814V154.879C272.454 155.553 272.218 156.14 271.755 156.624C271.291 157.107 270.729 157.353 270.083 157.353Z" fill="white"/>
<path d="M304.492 157.353H293.714V148.814C293.714 148.131 293.949 147.536 294.413 147.047C294.875 146.558 295.438 146.311 296.085 146.311H303.279V140.289H294.814C294.477 140.289 294.193 140.168 293.968 139.929C293.744 139.689 293.63 139.395 293.63 139.053C293.63 138.711 293.744 138.416 293.968 138.177C294.193 137.938 294.477 137.816 294.814 137.816H303.279C303.934 137.816 304.505 138.062 304.973 138.545C305.442 139.029 305.678 139.616 305.678 140.289V146.311C305.678 147.005 305.442 147.602 304.973 148.085C304.506 148.569 303.935 148.814 303.279 148.814H296.085V154.879H304.492C304.811 154.879 305.092 155 305.326 155.239C305.56 155.479 305.678 155.775 305.678 156.116C305.678 156.458 305.56 156.753 305.326 156.992C305.092 157.232 304.811 157.353 304.492 157.353Z" fill="white"/>
<path d="M320.475 157.353H312.095C311.767 157.353 311.485 157.232 311.256 156.992C311.027 156.753 310.909 156.459 310.909 156.116C310.909 155.774 311.027 155.479 311.256 155.239C311.485 155 311.767 154.879 312.095 154.879H320.446V150.05C320.446 149.708 320.33 149.409 320.101 149.159C319.872 148.911 319.59 148.784 319.262 148.784H314.492C314.164 148.784 313.882 148.665 313.653 148.431C313.424 148.195 313.307 147.899 313.307 147.548C313.307 147.207 313.424 146.911 313.653 146.671C313.882 146.431 314.164 146.311 314.492 146.311H319.289C319.608 146.311 319.889 146.19 320.123 145.95C320.356 145.711 320.475 145.416 320.475 145.073V140.289H312.01C311.682 140.289 311.4 140.168 311.171 139.929C310.942 139.689 310.824 139.396 310.824 139.053C310.824 138.711 310.942 138.416 311.171 138.177C311.4 137.938 311.682 137.816 312.01 137.816H320.475C321.13 137.816 321.694 138.062 322.153 138.545C322.611 139.027 322.844 139.613 322.844 140.289V144.927C322.844 146.002 322.521 146.885 321.885 147.548C322.541 148.31 322.873 149.152 322.873 150.05V154.879C322.873 155.553 322.636 156.141 322.168 156.624C321.699 157.107 321.13 157.353 320.475 157.353Z" fill="white"/>
<path d="M339.636 157.353H331.256C330.928 157.353 330.646 157.232 330.417 156.992C330.188 156.753 330.071 156.459 330.071 156.116C330.071 155.774 330.188 155.479 330.417 155.239C330.646 155 330.928 154.879 331.256 154.879H339.607V150.05C339.607 149.708 339.492 149.409 339.262 149.159C339.033 148.911 338.751 148.784 338.423 148.784H333.653C333.325 148.784 333.043 148.665 332.814 148.431C332.585 148.196 332.469 147.899 332.469 147.548C332.469 147.206 332.585 146.91 332.814 146.671C333.043 146.431 333.325 146.311 333.653 146.311H338.45C338.769 146.311 339.05 146.19 339.284 145.95C339.517 145.712 339.636 145.417 339.636 145.073V140.289H331.171C330.843 140.289 330.561 140.168 330.332 139.929C330.103 139.689 329.985 139.396 329.985 139.053C329.985 138.711 330.103 138.416 330.332 138.177C330.561 137.938 330.843 137.816 331.171 137.816H339.636C340.291 137.816 340.856 138.062 341.315 138.545C341.773 139.027 342.006 139.613 342.006 140.289V144.927C342.006 146.003 341.683 146.885 341.047 147.548C341.703 148.31 342.034 149.152 342.034 150.05V154.879C342.034 155.553 341.797 156.141 341.329 156.624C340.86 157.107 340.291 157.353 339.636 157.353Z" fill="white"/>
<path d="M357.341 157.353H351.853C351.367 157.353 350.84 157.229 350.287 156.985L348.496 156.204C348.018 155.999 347.776 155.603 347.776 155.027C347.776 154.685 347.885 154.39 348.1 154.151C348.315 153.911 348.581 153.789 348.89 153.789C349.125 153.789 349.4 153.864 349.709 154.011L351.275 154.703C351.463 154.821 351.656 154.879 351.853 154.879H357.341V148.814H350.174V137.816H358.526C358.845 137.816 359.125 137.94 359.359 138.185C359.593 138.429 359.712 138.721 359.712 139.053C359.712 139.395 359.595 139.689 359.366 139.929C359.136 140.168 358.854 140.289 358.526 140.289H352.573V146.34H357.341C357.977 146.34 358.538 146.588 359.006 147.076C359.474 147.565 359.712 148.15 359.712 148.814V154.879C359.712 155.554 359.476 156.142 359.013 156.624C358.55 157.107 357.986 157.353 357.341 157.353Z" fill="white"/>
<path d="M-223.2 -145.939H295.796L348.652 -70.9884C348.652 -70.9884 304.727 -30.2001 169.063 2.07266C33.3995 34.3454 -212.632 62.5341 -212.632 62.5341L-223.2 -145.939Z" fill="white" fill-opacity="0.05"/>
</g>
<defs>
<clipPath id="clip0_235_100">
<rect width="392" height="245" fill="white"/>
</clipPath>
</defs>
</svg>
