<svg id="svg" xmlns="http://www.w3.org/2000/svg" xmlns:xlink="http://www.w3.org/1999/xlink" width="400" height="400" viewBox="0, 0, 400,400"><g id="svgg"><path id="path0" d="M5.657 76.558 C 1.845 78.883,0.006 82.443,0.006 87.500 C 0.006 92.557,1.845 96.117,5.657 98.442 C 9.672 100.890,390.328 100.890,394.343 98.442 C 402.051 93.742,402.051 81.258,394.343 76.558 C 390.328 74.110,9.672 74.110,5.657 76.558 M5.657 201.558 C -2.051 206.258,-2.051 218.742,5.657 223.442 C 9.672 225.890,390.328 225.890,394.343 223.442 C 402.051 218.742,402.051 206.258,394.343 201.558 C 390.328 199.110,9.672 199.110,5.657 201.558 M5.657 326.558 C -2.051 331.258,-2.051 343.742,5.657 348.442 C 9.672 350.890,390.328 350.890,394.343 348.442 C 402.051 343.742,402.051 331.258,394.343 326.558 C 390.328 324.110,9.672 324.110,5.657 326.558 " stroke="none" fill="#FC278F" fill-rule="evenodd"></path></g></svg>