<svg width="15" height="14" viewBox="0 0 15 14" fill="none" xmlns="http://www.w3.org/2000/svg">
<path d="M13.6132 0.222168H1.49795C1.29713 0.222168 1.10454 0.301944 0.962532 0.443947C0.82053 0.58595 0.740753 0.778547 0.740753 0.97937V13.0946C0.740753 13.2954 0.82053 13.488 0.962532 13.63C1.10454 13.772 1.29713 13.8518 1.49795 13.8518H13.6132C13.814 13.8518 14.0066 13.772 14.1486 13.63C14.2906 13.488 14.3704 13.2954 14.3704 13.0946V0.97937C14.3704 0.778547 14.2906 0.58595 14.1486 0.443947C14.0066 0.301944 13.814 0.222168 13.6132 0.222168ZM4.78345 11.8354H2.76021V5.33101H4.78345V11.8354ZM3.77183 4.44281C3.46096 4.44281 3.16282 4.31932 2.943 4.0995C2.72318 3.87968 2.59968 3.58153 2.59968 3.27066C2.59968 2.95979 2.72318 2.66165 2.943 2.44183C3.16282 2.22201 3.46096 2.09851 3.77183 2.09851C4.0827 2.09851 4.38084 2.22201 4.60067 2.44183C4.82049 2.66165 4.94398 2.95979 4.94398 3.27066C4.94398 3.58153 4.82049 3.87968 4.60067 4.0995C4.38084 4.31932 4.0827 4.44281 3.77183 4.44281ZM12.3547 11.8354H10.3337V8.67254C10.3337 7.91837 10.3201 6.94839 9.28275 6.94839C8.23024 6.94839 8.07047 7.77071 8.07047 8.61953V11.8361H6.05101V5.33177H7.98944V6.22072H8.01746C8.28627 5.70961 8.94655 5.17048 9.92864 5.17048C11.9761 5.17048 12.354 6.51679 12.354 8.26895V11.8354H12.3547Z" fill="white"/>
</svg>
