<svg width="35" height="23" viewBox="0 0 35 23" fill="none" xmlns="http://www.w3.org/2000/svg">
<path d="M21.7836 11.5377C21.7836 17.4137 16.9691 22.1749 11.028 22.1749C5.08698 22.1749 0.272461 17.4127 0.272461 11.5377C0.272461 5.66273 5.08816 0.900513 11.028 0.900513C16.9679 0.900513 21.7836 5.66273 21.7836 11.5377Z" fill="#F0F0F0"/>
<path d="M23.9455 0.900635C21.5333 0.900635 19.3126 1.69514 17.518 3.02164L17.5268 3.0228C17.8797 3.35997 18.269 3.59727 18.5692 3.98542L16.3313 4.02042C15.9806 4.37042 15.6612 4.75134 15.3599 5.14707H19.3061C19.6063 5.50337 19.8839 5.813 20.1357 6.20652H14.6445C14.4433 6.54905 14.2572 6.90104 14.0947 7.2669H20.7609C20.9352 7.63172 21.0912 7.90729 21.2236 8.29345H13.6999C13.5805 8.66049 13.4783 9.03592 13.4008 9.41882H21.5387C21.6183 9.7869 21.6797 10.1272 21.7217 10.4741H13.2392C13.2037 10.8241 13.1855 11.1793 13.1855 11.5378H21.7828C21.7828 11.9144 21.756 12.2633 21.7173 12.6016H13.2392C13.2758 12.9622 13.3297 13.3164 13.4008 13.6654H21.5257C21.4418 14.01 21.3449 14.3567 21.2234 14.7163H13.6751C13.7891 15.0801 13.9279 15.4332 14.0795 15.7779H20.7609C20.5759 16.1651 20.3661 16.4746 20.1348 16.8373H14.6251C14.8425 17.2096 15.0825 17.5648 15.3428 17.9053L19.3062 17.9637C18.9684 18.3647 18.535 18.6062 18.14 18.9573C18.1615 18.9743 17.5085 18.9552 16.2227 18.935C18.1787 20.9306 20.9125 22.175 23.9454 22.175C29.8875 22.175 34.704 17.4127 34.704 11.5378C34.704 5.66297 29.8886 0.900635 23.9455 0.900635Z" fill="#F0F0F0"/>
<path d="M21.7836 11.5377C21.7836 17.4137 16.9691 22.1749 11.028 22.1749C5.08698 22.1749 0.272461 17.4127 0.272461 11.5377C0.272461 5.66273 5.08816 0.900513 11.028 0.900513C16.9679 0.900513 21.7836 5.66273 21.7836 11.5377Z" fill="#EA302A"/>
<path d="M23.9455 0.900635C21.5333 0.900635 19.3126 1.69514 17.518 3.02164L17.5268 3.0228C17.8797 3.35997 18.269 3.59727 18.5692 3.98542L16.3313 4.02042C15.9806 4.37042 15.6612 4.75134 15.3599 5.14707H19.3061C19.6063 5.50337 19.8839 5.813 20.1357 6.20652H14.6445C14.4433 6.54905 14.2572 6.90104 14.0947 7.2669H20.7609C20.9352 7.63172 21.0912 7.90729 21.2236 8.29345H13.6999C13.5805 8.66049 13.4783 9.03592 13.4008 9.41882H21.5387C21.6183 9.7869 21.6797 10.1272 21.7217 10.4741H13.2392C13.2037 10.8241 13.1855 11.1793 13.1855 11.5378H21.7828C21.7828 11.9144 21.756 12.2633 21.7173 12.6016H13.2392C13.2758 12.9622 13.3297 13.3164 13.4008 13.6654H21.5257C21.4418 14.01 21.3449 14.3567 21.2234 14.7163H13.6751C13.7891 15.0801 13.9279 15.4332 14.0795 15.7779H20.7609C20.5759 16.1651 20.3661 16.4746 20.1348 16.8373H14.6251C14.8425 17.2096 15.0825 17.5648 15.3428 17.9053L19.3062 17.9637C18.9684 18.3647 18.535 18.6062 18.14 18.9573C18.1615 18.9743 17.5085 18.9552 16.2227 18.935C18.1787 20.9306 20.9125 22.175 23.9454 22.175C29.8875 22.175 34.704 17.4127 34.704 11.5378C34.704 5.66297 29.8886 0.900635 23.9455 0.900635Z" fill="#F6AB37"/>
</svg>
