<svg width="18" height="14" viewBox="0 0 18 14" fill="none" xmlns="http://www.w3.org/2000/svg">
<path d="M15.7985 3.61084C15.8095 3.75991 15.8095 3.90813 15.8095 4.05635C15.8095 8.59246 12.357 13.8194 6.04733 13.8194C4.1034 13.8194 2.29747 13.2564 0.777771 12.2784C1.05377 12.3099 1.31955 12.321 1.60662 12.321C3.15102 12.3248 4.65169 11.8083 5.86673 10.855C5.15069 10.842 4.45656 10.6058 3.88127 10.1792C3.30598 9.7527 2.87825 9.15715 2.65781 8.47576C2.86992 8.50728 3.08288 8.52858 3.30607 8.52858C3.61359 8.52858 3.92281 8.48598 4.20988 8.41187C3.43279 8.25497 2.73403 7.83376 2.23241 7.21986C1.73079 6.60596 1.45729 5.83728 1.4584 5.0445V5.00191C1.91585 5.25661 2.44655 5.41591 3.00877 5.4372C2.53777 5.12422 2.15157 4.69952 1.88462 4.20099C1.61766 3.70246 1.47826 3.1456 1.47885 2.58009C1.47885 1.94291 1.64836 1.35854 1.94566 0.849131C2.80785 1.9097 3.8832 2.77735 5.10206 3.39588C6.32091 4.0144 7.6561 4.37002 9.02114 4.43969C8.96833 4.18413 8.93596 3.91921 8.93596 3.65343C8.93573 3.20276 9.02433 2.75648 9.19669 2.34008C9.36905 1.92368 9.62178 1.54533 9.94045 1.22666C10.2591 0.907995 10.6375 0.655259 11.0539 0.482901C11.4703 0.310544 11.9166 0.221944 12.3672 0.222168C13.3554 0.222168 14.2473 0.636168 14.8742 1.30572C15.6424 1.15718 16.379 0.87675 17.0515 0.476872C16.7955 1.26979 16.2591 1.94215 15.5429 2.36798C16.2242 2.29028 16.8901 2.11111 17.5184 1.83643C17.0491 2.52055 16.4676 3.12046 15.7985 3.61084Z" fill="white"/>
</svg>
