<svg width="23" height="16" viewBox="0 0 23 16" fill="none" xmlns="http://www.w3.org/2000/svg">
<path d="M22.4383 2.78111C22.3123 2.31866 22.066 1.89692 21.7239 1.55787C21.3818 1.21881 20.9558 0.97427 20.4885 0.848578C18.7555 0.37803 11.8225 0.37037 11.8225 0.37037C11.8225 0.37037 4.8906 0.362709 3.15652 0.812466C2.68944 0.943942 2.26438 1.19194 1.92215 1.53266C1.57992 1.87338 1.33201 2.29537 1.20222 2.75813C0.745181 4.4718 0.740755 8.02609 0.740755 8.02609C0.740755 8.02609 0.736328 11.5979 1.19004 13.294C1.44457 14.2319 2.19154 14.9727 3.14102 15.2255C4.8917 15.696 11.8059 15.7037 11.8059 15.7037C11.8059 15.7037 18.7389 15.7113 20.4719 15.2627C20.9394 15.1372 21.3657 14.8932 21.7087 14.5549C22.0516 14.2165 22.2993 13.7955 22.4273 13.3334C22.8854 11.6209 22.8887 8.06767 22.8887 8.06767C22.8887 8.06767 22.9109 4.49478 22.4383 2.78111ZM9.60482 11.3188L9.61035 4.75304L15.3725 8.04141L9.60482 11.3188Z" fill="white"/>
</svg>
